<?xml version="1.0" standalone="no"?>
<!DOCTYPE svg PUBLIC "-//W3C//DTD SVG 20010904//EN"
 "http://www.w3.org/TR/2001/REC-SVG-20010904/DTD/svg10.dtd">
<svg version="1.0" xmlns="http://www.w3.org/2000/svg"
 width="128.000000pt" height="128.000000pt" viewBox="0 0 128.000000 128.000000"
 preserveAspectRatio="xMidYMid meet">
<metadata>
Created by potrace 1.11, written by Peter Selinger 2001-2013
</metadata>
<g transform="translate(0.000000,128.000000) scale(0.100000,-0.100000)"
fill="#000000" stroke="none">
<path d="M472 1233 c24 -54 31 -138 15 -189 -14 -45 -69 -108 -140 -159 l-55
-39 61 -76 c34 -41 66 -80 72 -86 6 -7 24 -26 39 -44 26 -31 28 -32 41 -14 17
24 36 87 43 139 2 22 8 42 13 45 5 3 50 6 101 5 l93 -1 -3 -49 c-5 -84 -42
-201 -82 -264 l-38 -58 80 -94 c44 -52 91 -106 104 -121 13 -15 24 -29 24 -31
0 -2 -60 -4 -132 -5 l-133 0 -46 50 -46 51 -61 -38 c-84 -51 -166 -72 -272
-69 -47 1 -98 7 -113 13 -16 6 -30 11 -33 11 -2 0 -4 -47 -4 -105 l0 -104 640
0 640 0 0 639 0 640 -414 0 -415 0 21 -47z"/>
<path d="M138 1195 c-61 -33 -51 -134 20 -198 17 -16 21 -15 65 16 51 36 67
62 67 112 0 67 -85 106 -152 70z"/>
<path d="M71 700 c-58 -49 -71 -78 -71 -152 0 -64 2 -70 35 -107 59 -65 162
-78 252 -32 63 31 66 41 30 82 -45 51 -118 136 -162 189 -20 25 -40 46 -44 47
-3 1 -21 -11 -40 -27z"/>
</g>
</svg>
